<svg version="1.2" xmlns="http://www.w3.org/2000/svg" viewBox="0 0 723 513" width="723" height="513">
	<title>poa4-svg</title>
	<defs>
		<linearGradient id="g1" x2="1" gradientUnits="userSpaceOnUse" gradientTransform="matrix(0,104.48,-69.589,0,329.289,166.682)">
			<stop offset="0" stop-color="#ffffff" stop-opacity=".7"/>
			<stop offset="1" stop-color="#ffffff" stop-opacity="0"/>
		</linearGradient>
		<linearGradient id="g2" x2="1" gradientUnits="userSpaceOnUse" gradientTransform="matrix(0,104.48,-54.168,0,381.876,166.682)">
			<stop offset="0" stop-color="#ffffff" stop-opacity=".7"/>
			<stop offset="1" stop-color="#ffffff" stop-opacity="0"/>
		</linearGradient>
		<linearGradient id="g3" x2="1" gradientUnits="userSpaceOnUse" gradientTransform="matrix(-1.646,138.286,-197.539,-2.351,355.501,105.052)">
			<stop offset="0" stop-color="#ffffff" stop-opacity=".7"/>
			<stop offset="1" stop-color="#ffffff" stop-opacity="0"/>
		</linearGradient>
		<linearGradient id="g4" x2="1" gradientUnits="userSpaceOnUse" gradientTransform="matrix(-29.961,66.663,-15.77,-7.088,174.482,140.67)">
			<stop offset="0" stop-color="#ffffff" stop-opacity=".7"/>
			<stop offset="1" stop-color="#ffffff" stop-opacity="0"/>
		</linearGradient>
		<linearGradient id="g5" x2="1" gradientUnits="userSpaceOnUse" gradientTransform="matrix(-24.153,53.74,-17.304,-7.777,564.88,143.728)">
			<stop offset="0" stop-color="#ffffff" stop-opacity=".7"/>
			<stop offset="1" stop-color="#ffffff" stop-opacity="0"/>
		</linearGradient>
		<linearGradient id="g6" x2="1" gradientUnits="userSpaceOnUse" gradientTransform="matrix(-11.571,25.746,-7.143,-3.21,557.105,294.114)">
			<stop offset="0" stop-color="#ffffff" stop-opacity=".7"/>
			<stop offset="1" stop-color="#ffffff" stop-opacity="0"/>
		</linearGradient>
	</defs>
	<style>
		.s0 { fill: none;stroke: #2fafc1;stroke-linecap: round;stroke-miterlimit:10;stroke-width: 3;stroke-dasharray: 9.0002215134,9.0002215134 } 
		.s1 { fill: #3c4043 } 
		.s2 { fill: #6d6e72 } 
		.s3 { fill: #53555b } 
		.s4 { fill: #37c3be } 
		.s5 { fill: #e6e9f1 } 
		.s6 { fill: url(#g1) } 
		.s7 { fill: url(#g2) } 
		.s8 { fill: #d4d7dd } 
		.s9 { fill: #7b7c80 } 
		.s10 { fill: #141c3a } 
		.s11 { fill: #fa2356 } 
		.s12 { fill: #b6173c } 
		.s13 { fill: #f76300 } 
		.s14 { fill: #cccfd6 } 
		.s15 { fill: #ffffff } 
		.s16 { fill: #f9e382 } 
		.s17 { fill: url(#g3) } 
		.s18 { fill: #21475e } 
		.s19 { fill: #2d5673 } 
		.s20 { fill: #a5dde8 } 
		.s21 { fill: #2b94a5 } 
		.s22 { fill: #2fafc1 } 
		.s23 { fill: url(#g4) } 
		.s24 { fill: url(#g5) } 
		.s25 { opacity: .5;fill: #a5dde8 } 
		.s26 { fill: url(#g6) } 
	</style>
	<g id="Background">
	</g>
	<g id="Objects">
		<g id="Layer">
			<path id="Layer" class="s0" d="m351.2 512.7c-141 0-254.9-114-254.9-255 0-141 113.9-255 254.9-255 141 0 255 114 255 255 0 141-114 255-255 255z"/>
		</g>
		<g id="Layer">
			<path id="Layer" class="s1" d="m431.4 476h-160.3c-19.8 0-35.8-16-35.8-35.8v-70.2c0-19.8 16-35.8 35.8-35.8h160.3c19.7 0 35.8 16 35.8 35.8v70.2c0 19.8-16.1 35.8-35.8 35.8z"/>
			<path id="Layer" class="s2" d="m396 444h-89.5c-9.6 0-17.3-7.8-17.3-17.4v-8.3c0-9.6 7.7-17.4 17.3-17.4h89.5c9.6 0 17.3 7.8 17.3 17.4v8.3c0 9.6-7.7 17.4-17.3 17.4z"/>
			<path id="Layer" class="s3" d="m365.4 458.9h-28.4c-2.5 0-4.6-2.1-4.6-4.7v-5.6c0-2.6 2.1-4.6 4.6-4.6h28.4c2.6 0 4.7 2 4.7 4.6v5.6c0 2.6-2.1 4.7-4.7 4.7z"/>
			<path id="Layer" class="s2" d="m365.4 473.8h-28.4c-2.5 0-4.6-2.1-4.6-4.6v-5.7c0-2.6 2.1-4.6 4.6-4.6h28.4c2.6 0 4.7 2 4.7 4.6v5.7c0 2.5-2.1 4.6-4.7 4.6z"/>
			<path id="Layer" class="s3" d="m365.4 488.7h-28.4c-2.5 0-4.6-2.1-4.6-4.6v-5.7c0-2.5 2.1-4.6 4.6-4.6h28.4c2.6 0 4.7 2.1 4.7 4.6v5.7c0 2.5-2.1 4.6-4.7 4.6z"/>
			<path id="Layer" class="s2" d="m365.4 503.6h-28.4c-2.5 0-4.6-2-4.6-4.6v-5.7c0-2.5 2.1-4.6 4.6-4.6h28.4c2.6 0 4.7 2.1 4.7 4.6v5.7c0 2.6-2.1 4.6-4.7 4.6z"/>
			<path id="Layer" class="s3" d="m365.4 518.6h-28.4c-2.5 0-4.6-2.1-4.6-4.7v-5.6c0-2.6 2.1-4.7 4.6-4.7h28.4c2.6 0 4.7 2.1 4.7 4.7v5.6c0 2.6-2.1 4.7-4.7 4.7z"/>
			<g id="Layer">
				<g id="Layer">
					<path id="Layer" class="s3" d="m307.2 438.1c-2 0-3.5-1.6-3.5-3.5 0-1.9 1.5-3.5 3.5-3.5 1.9 0 3.4 1.6 3.4 3.5 0 1.9-1.5 3.5-3.4 3.5z"/>
					<path id="Layer" class="s3" d="m307.2 413.8c-2 0-3.5-1.6-3.5-3.5 0-1.9 1.5-3.5 3.5-3.5 1.9 0 3.4 1.6 3.4 3.5 0 1.9-1.5 3.5-3.4 3.5z"/>
				</g>
				<g id="Layer">
					<path id="Layer" class="s3" d="m395.3 438.1c-1.9 0-3.5-1.6-3.5-3.5 0-1.9 1.6-3.5 3.5-3.5 1.9 0 3.5 1.6 3.5 3.5 0 1.9-1.6 3.5-3.5 3.5z"/>
					<path id="Layer" class="s3" d="m395.3 413.8c-1.9 0-3.5-1.6-3.5-3.5 0-1.9 1.6-3.5 3.5-3.5 1.9 0 3.5 1.6 3.5 3.5 0 1.9-1.6 3.5-3.5 3.5z"/>
				</g>
			</g>
		</g>
		<path id="Layer" class="s4" d="m352.7 495.8c-131.6 0-238.1-106.4-238.1-238.1 0-131.7 106.5-238.1 238.1-238.1 131.7 0 238.1 106.4 238.1 238.1 0 131.7-106.4 238.1-238.1 238.1z"/>
		<g id="Layer">
			<path id="Layer" class="s5" d="m465.6 165.6v145.2c0 6.3-5.1 11.5-11.4 11.5h-205.9c-6.3 0-11.5-5.2-11.5-11.5v-145.2c0-6.4 5.2-11.5 11.5-11.5h205.9c6.3 0 11.4 5.1 11.4 11.5z"/>
			<path id="Layer" class="s1" d="m465.6 165.6v124.7h-228.8v-124.7c0-6.4 5.2-11.5 11.5-11.5h205.9c6.3 0 11.4 5.1 11.4 11.5z"/>
			<path id="Layer" class="s2" d="m247.8 163.7h206.9v117.7h-206.9z"/>
			<g id="Layer">
				<path id="Layer" class="s6" d="m320.9 281.4h-30.8l47.6-117.7h30.8z"/>
				<path id="Layer" class="s7" d="m364.8 281.4h-13.5l47.6-117.7h13.5z"/>
			</g>
			<path id="Layer" class="s1" d="m351.2 311.9c-3.3 0-6-2.8-6-6.1 0-3.4 2.7-6.1 6-6.1 3.4 0 6.1 2.7 6.1 6.1 0 3.3-2.7 6.1-6.1 6.1z"/>
			<path id="Layer" class="s8" d="m376 344.4h-49.6l2.7-22.1h44.3z"/>
			<path id="Layer" class="s5" d="m392.9 351.8h-83.4v-4.4c0-1.6 1.3-3 3-3h77.5c1.6 0 2.9 1.4 2.9 3 0 0 0 4.4 0 4.4z"/>
			<path id="Layer" class="s9" d="m351.2 159.8c-0.5 0-0.9-0.4-0.9-0.9 0-0.5 0.4-0.9 0.9-0.9 0.5 0 1 0.4 1 0.9 0 0.5-0.5 0.9-1 0.9z"/>
		</g>
		<path id="Layer" class="s10" d="m103.3 351.8h495.8v17.9h-495.8z"/>
		<g id="Layer">
			<path id="Layer" class="s11" d="m196.4 282.4h-25.4c-2.2 0-3.9-1.7-3.9-3.9v-18.9c0-2.1 1.7-3.8 3.9-3.8h25.4c2.1 0 3.8 1.7 3.8 3.8v18.9c0 2.2-1.7 3.9-3.8 3.9z"/>
			<path id="Layer" class="s12" d="m178.4 250.6h10.6c1.2 0 2.2 1 2.2 2.2v3h-15.1v-3c0-1.2 1-2.2 2.3-2.2z"/>
			<path id="Layer" class="s12" d="m177.4 282.4h12.5v3.5h-12.5z"/>
			<path id="Layer" class="s11" d="m167.1 285.9h33.1v27.4h-33.1z"/>
			<path id="Layer" class="s12" d="m167.1 313.3h33.1v5.9h-33.1z"/>
			<path id="Layer" class="s12" d="m179.9 316.2h7.5v9.8h-7.5z"/>
			<path id="Layer" class="s11" d="m167.1 319.2h12.8v32.6h-12.8z"/>
			<path id="Layer" class="s11" d="m187.4 319.2h12.8v32.6h-12.8z"/>
			<g id="Layer">
				<path id="Layer" class="s13" d="m156.7 268.7h8v1.4h-8z"/>
				<path id="Layer" class="s12" d="m162.4 263.5h4.7v11.7h-4.7z"/>
				<path id="Layer" class="s12" d="m155.9 271.6c-1.2 0-2.2-1-2.2-2.2 0-1.3 1-2.2 2.2-2.2 1.2 0 2.2 0.9 2.2 2.2 0 1.2-1 2.2-2.2 2.2z"/>
			</g>
			<g id="Layer">
				<path id="Layer" class="s13" d="m210.6 270.1h-8v-1.4h8z"/>
				<path id="Layer" class="s12" d="m205 275.2h-4.8v-11.7h4.8z"/>
				<path id="Layer" class="s12" d="m211.4 271.6c-1.2 0-2.2-1-2.2-2.2 0-1.3 1-2.2 2.2-2.2 1.3 0 2.3 0.9 2.3 2.2 0 1.2-1 2.2-2.3 2.2z"/>
			</g>
			<g id="Layer">
				<path id="Layer" class="s12" d="m167.1 285.9l-5.8 5.8-6.5 22 5.5 2 6.8-21.9z"/>
				<path id="Layer" class="s11" d="m162.8 315.2l-3.5 9.2-2.4-0.9 2.1-5.6-4.3-1.6-2.1 5.6-2.5-0.9 3.5-9.2z"/>
			</g>
			<g id="Layer">
				<path id="Layer" class="s12" d="m200.2 285.9l5.8 5.8 6.6 22-5.6 2-6.8-21.9z"/>
				<path id="Layer" class="s11" d="m204.6 315.2l3.4 9.2 2.5-0.9-2.1-5.6 4.3-1.6 2 5.6 2.5-0.9-3.4-9.2z"/>
			</g>
			<path id="Layer" class="s5" d="m172.4 290.9h22.6v14.5h-22.6z"/>
			<path id="Layer" class="s5" d="m190.5 277.6h-13.6c-1.5 0-2.7-1.2-2.7-2.7v-1.1c0-1.5 1.2-2.7 2.7-2.7h13.6c1.4 0 2.6 1.2 2.6 2.7v1.1c0 1.5-1.2 2.7-2.6 2.7z"/>
			<g id="Layer">
				<g id="Layer">
					<path id="Layer" class="s1" d="m176.7 269.4c-2.4 0-4.3-2-4.3-4.4 0-2.4 1.9-4.3 4.3-4.3 2.4 0 4.3 1.9 4.3 4.3 0 2.4-1.9 4.4-4.3 4.4z"/>
					<path id="Layer" class="s5" d="m176.7 267.9c-1.6 0-2.9-1.3-2.9-2.9 0-1.6 1.3-2.9 2.9-2.9 1.6 0 2.9 1.3 2.9 2.9 0 1.6-1.3 2.9-2.9 2.9z"/>
				</g>
				<g id="Layer">
					<path id="Layer" class="s1" d="m190.6 269.4c-2.4 0-4.3-2-4.3-4.4 0-2.4 1.9-4.3 4.3-4.3 2.4 0 4.4 1.9 4.4 4.3 0 2.4-2 4.4-4.4 4.4z"/>
					<path id="Layer" class="s5" d="m190.6 267.9c-1.6 0-2.9-1.3-2.9-2.9 0-1.6 1.3-2.9 2.9-2.9 1.7 0 3 1.3 3 2.9 0 1.6-1.3 2.9-3 2.9z"/>
				</g>
			</g>
			<g id="Layer">
				<path id="Layer" class="s13" d="m177.1 297.6c-1.4 0-2.4-1-2.4-2.4 0-1.3 1-2.4 2.4-2.4 1.3 0 2.4 1.1 2.4 2.4 0 1.4-1.1 2.4-2.4 2.4z"/>
				<path id="Layer" class="s1" d="m177.1 303.5c-1.4 0-2.4-1-2.4-2.4 0-1.3 1-2.4 2.4-2.4 1.3 0 2.4 1.1 2.4 2.4 0 1.4-1.1 2.4-2.4 2.4z"/>
				<path id="Layer" class="s1" d="m182.3 292.8h10.4v10.7h-10.4z"/>
			</g>
		</g>
		<g id="Layer">
			<g id="Layer">
				<path id="Layer" class="s14" d="m410.3 351.8h-184.3v-2.5c0-4.4 3.6-8 8-8h168.3c4.4 0 8 3.6 8 8z"/>
				<path id="Layer" class="s8" d="m226 346.5h184.3v5.3h-184.3z"/>
			</g>
			<path id="Layer" class="s5" d="m469.3 339h-17.2c-4 0-7.2 3.2-7.2 7.2 0 3.1 2.5 5.6 5.7 5.6h20.3c3.1 0 5.6-2.5 5.6-5.6 0-4-3.2-7.2-7.2-7.2z"/>
		</g>
		<g id="Layer">
			<path id="Layer" class="s11" d="m505.3 335.7h84v16.1h-84z"/>
			<g id="Layer">
				<path id="Layer" class="s12" d="m578.6 335.7h5.5v16.1h-5.5z"/>
				<path id="Layer" class="s12" d="m510.6 335.7h5.4v16.1h-5.4z"/>
			</g>
			<path id="Layer" class="s15" d="m547.3 347.7c-12.2 0-22.1-1.7-22.1-4 0-2.2 9.9-4 22.1-4 12.3 0 22.2 1.8 22.2 4 0 2.3-9.9 4-22.2 4z"/>
		</g>
		<g id="Layer">
			<g id="Layer">
				<path id="Layer" class="s10" d="m511.9 323.7h77.4v12h-77.4z"/>
				<g id="Layer">
					<path id="Layer" class="s15" d="m579.4 323.7h5.1v12h-5.1z"/>
					<path id="Layer" class="s15" d="m516.8 323.7h5v12h-5z"/>
				</g>
			</g>
			<g id="Layer">
				<path id="Layer" class="s15" d="m528.2 326.6h19.6v6.2h-19.6z"/>
				<path id="Layer" class="s15" d="m553.5 326.6h19.5v6.2h-19.5z"/>
			</g>
		</g>
		<g id="Layer">
			<path id="Layer" class="s16" d="m354.1 106c-7.2 0-13.1-5.9-13.1-13.1 0-7.2 5.9-13.1 13.1-13.1 7.2 0 13.1 5.9 13.1 13.1 0 7.2-5.9 13.1-13.1 13.1z"/>
			<path id="Layer" class="s17" d="m477.2 263.5h-247.1l97.5-171.2h52z"/>
			<path id="Layer" class="s18" d="m344.2 31.9h19.8c4.2 0 7.6 3.4 7.6 7.6v27.1h-35v-27.1c0-4.2 3.4-7.6 7.6-7.6z"/>
			<path id="Layer" class="s19" d="m386.9 92.3h-65.6v-15.3c0-13 10.5-23.6 23.6-23.6h18.4c13 0 23.6 10.6 23.6 23.6z"/>
		</g>
		<g id="Layer">
			<path id="Layer" class="s1" d="m431.4 476h-160.3c-19.8 0-35.8-16-35.8-35.8v-70.2c0-19.8 16-35.8 35.8-35.8h160.3c19.7 0 35.8 16 35.8 35.8v70.2c0 19.8-16.1 35.8-35.8 35.8z"/>
			<path id="Layer" class="s2" d="m396 444h-89.5c-9.6 0-17.3-7.8-17.3-17.4v-8.3c0-9.6 7.7-17.4 17.3-17.4h89.5c9.6 0 17.3 7.8 17.3 17.4v8.3c0 9.6-7.7 17.4-17.3 17.4z"/>
			<path id="Layer" class="s3" d="m365.4 458.9h-28.4c-2.5 0-4.6-2.1-4.6-4.7v-5.6c0-2.6 2.1-4.6 4.6-4.6h28.4c2.6 0 4.7 2 4.7 4.6v5.6c0 2.6-2.1 4.7-4.7 4.7z"/>
			<path id="Layer" class="s2" d="m365.4 473.8h-28.4c-2.5 0-4.6-2.1-4.6-4.6v-5.7c0-2.6 2.1-4.6 4.6-4.6h28.4c2.6 0 4.7 2 4.7 4.6v5.7c0 2.5-2.1 4.6-4.7 4.6z"/>
			<path id="Layer" class="s3" d="m365.4 488.7h-28.4c-2.5 0-4.6-2.1-4.6-4.6v-5.7c0-2.5 2.1-4.6 4.6-4.6h28.4c2.6 0 4.7 2.1 4.7 4.6v5.7c0 2.5-2.1 4.6-4.7 4.6z"/>
			<path id="Layer" class="s2" d="m365.4 503.6h-28.4c-2.5 0-4.6-2-4.6-4.6v-5.7c0-2.5 2.1-4.6 4.6-4.6h28.4c2.6 0 4.7 2.1 4.7 4.6v5.7c0 2.6-2.1 4.6-4.7 4.6z"/>
			<path id="Layer" class="s3" d="m365.4 518.6h-28.4c-2.5 0-4.6-2.1-4.6-4.7v-5.6c0-2.6 2.1-4.7 4.6-4.7h28.4c2.6 0 4.7 2.1 4.7 4.7v5.6c0 2.6-2.1 4.7-4.7 4.7z"/>
			<g id="Layer">
				<g id="Layer">
					<path id="Layer" class="s3" d="m307.2 438.1c-2 0-3.5-1.6-3.5-3.5 0-1.9 1.5-3.5 3.5-3.5 1.9 0 3.4 1.6 3.4 3.5 0 1.9-1.5 3.5-3.4 3.5z"/>
					<path id="Layer" class="s3" d="m307.2 413.8c-2 0-3.5-1.6-3.5-3.5 0-1.9 1.5-3.5 3.5-3.5 1.9 0 3.4 1.6 3.4 3.5 0 1.9-1.5 3.5-3.4 3.5z"/>
				</g>
				<g id="Layer">
					<path id="Layer" class="s3" d="m395.3 438.1c-1.9 0-3.5-1.6-3.5-3.5 0-1.9 1.6-3.5 3.5-3.5 1.9 0 3.5 1.6 3.5 3.5 0 1.9-1.6 3.5-3.5 3.5z"/>
					<path id="Layer" class="s3" d="m395.3 413.8c-1.9 0-3.5-1.6-3.5-3.5 0-1.9 1.6-3.5 3.5-3.5 1.9 0 3.5 1.6 3.5 3.5 0 1.9-1.6 3.5-3.5 3.5z"/>
				</g>
			</g>
		</g>
		<g id="Layer">
			<path id="Layer" class="s10" d="m103.3 117.5h107.2v110.9h-107.2z"/>
			<path id="Layer" class="s20" d="m116.4 131h81v83.9h-81z"/>
			<path id="Layer" class="s21" d="m116.4 165.2c0 0 9.3-8 15.6-5 6.3 3 24.9 22.9 24.9 22.9 0 0 24.3-16.9 31.1-13.9 6.7 3 9.4 7.5 9.4 7.5v38.2h-81z"/>
			<path id="Layer" class="s22" d="m160 163.7c-5.4 0-9.7-4.3-9.7-9.7 0-5.4 4.3-9.7 9.7-9.7 5.4 0 9.8 4.3 9.8 9.7 0 5.4-4.4 9.7-9.8 9.7z"/>
			<path id="Layer" class="s23" d="m154 214.9h-22l34-84h22z"/>
		</g>
		<g id="Layer">
			<path id="Layer" class="s1" d="m106.5 349.2h106.4v2.6h-106.4z"/>
			<g id="Layer">
				<path id="Layer" class="s5" d="m159.7 345.6c0 0 5.7-5.6 17.9-2.9 12.2 2.8 27.2 4.8 31.6-0.1l-0.9 2.4 1.7-0.4v4.6h-50.3z"/>
				<path id="Layer" class="s5" d="m159.7 345.6c0 0-5.7-5.6-17.9-2.9-12.3 2.8-27.3 4.8-31.6-0.1l0.8 2.4-1.7-0.4v4.6h50.4c0 0 0-3.6 0-3.6z"/>
			</g>
		</g>
		<g id="Layer">
			<path id="Layer" class="s10" d="m549.1 218.2c-27.8 0-50.3-22.5-50.3-50.3 0-27.9 22.5-50.4 50.3-50.4 27.9 0 50.4 22.5 50.4 50.4 0 27.8-22.5 50.3-50.4 50.3z"/>
			<path id="Layer" class="s5" d="m589.3 167.9c0 21.8-17.4 39.5-39.1 40.1q-0.5 0-1.1 0c-7.8 0-15.1-2.2-21.2-6.1-11.4-7.1-18.9-19.7-18.9-34 0-22.2 18-40.2 40.1-40.2q4.3 0 8.4 0.9c7.8 1.7 14.8 5.6 20.2 11.1 7.2 7.3 11.6 17.2 11.6 28.2z"/>
			<path id="Layer" class="s18" d="m547.6 148.9h3.1v17.2h-3.1z"/>
			<path id="Layer" class="s11" d="m572.6 189.2l-2.2 2.1-21.1-21.1 2.2-2.2z"/>
			<path id="Layer" class="s24" d="m577.7 139.7l-27.5 68.3q-0.5 0-1.1 0c-7.8 0-15.1-2.2-21.2-6.1l29.6-73.3c7.8 1.7 14.8 5.6 20.2 11.1z"/>
		</g>
		<g id="Layer">
			<g id="Layer">
				<path id="Layer" class="s10" d="m557.7 280l4.1 0.8-7.8 39.2-4-0.8z"/>
				<path id="Layer" class="s19" d="m550.5 317l4 0.8-0.5 2.2-4-0.8z"/>
				<path id="Layer" class="s15" d="m560.2 275.1l1.1 0.2 0.5 5.5-4-0.8z"/>
				<path id="Layer" class="s19" d="m560.4 274.3l1.1 0.2-0.2 0.8-1.1-0.2z"/>
			</g>
			<g id="Layer">
				<path id="Layer" class="s10" d="m541.8 281.8l4-0.3 3.3 39.8-4 0.3z"/>
				<path id="Layer" class="s19" d="m544.9 319.4l4-0.3 0.2 2.2-4 0.3z"/>
				<path id="Layer" class="s15" d="m542.8 276.4l1.1-0.1 1.9 5.2-4 0.3z"/>
				<path id="Layer" class="s19" d="m542.7 275.6l1.2-0.1v0.8l-1.1 0.1z"/>
			</g>
			<g id="Layer">
				<path id="Layer" class="s25" d="m562.2 290.3l-0.3 3.1-3.3 30.3h-15.9l-0.7-6.3-3-27.1z"/>
				<path id="Layer" class="s26" d="m562.2 290.3l-0.3 3.1-12.2 30.3h-7l-0.7-6.3 11-27.1z"/>
			</g>
		</g>
	</g>
</svg>