<svg width="26" height="30" viewBox="0 0 26 30" fill="none" xmlns="http://www.w3.org/2000/svg">
<path d="M4.77247 24.1753C4.33836 23.8859 3.96503 23.5169 3.52802 22.9945C3.30119 22.7169 3.07641 22.4376 2.85371 22.1567C2.18373 21.3246 1.7612 20.9412 1.3242 20.7834C0.962871 20.6537 0.667881 20.3858 0.504111 20.0386C0.340331 19.6914 0.321201 19.2933 0.450921 18.932C0.580631 18.5706 0.848571 18.2756 1.19579 18.1119C1.54301 17.9481 1.94107 17.929 2.30239 18.0587C3.39056 18.4494 4.12709 19.1223 5.11975 20.3566C4.98373 20.1873 5.61174 20.9744 5.74632 21.1365C6.02125 21.465 6.22384 21.6647 6.38301 21.7703C6.6782 21.9686 7.2324 22.0539 8.0471 21.9729C8.0804 21.4201 8.1831 20.8833 8.3394 20.3884C4.04461 19.3379 1.6136 16.5683 1.6136 11.1332C1.6136 9.3389 2.149 7.72401 3.14456 6.3696C2.82911 5.07595 2.87686 3.51171 3.58156 1.75068C3.66154 1.55148 3.78483 1.37256 3.9425 1.2269C4.10018 1.08124 4.28829 0.972479 4.49319 0.908509C4.6104 0.873779 4.67696 0.857859 4.79417 0.840499C5.95614 0.662519 7.5971 1.0865 9.7358 2.42644C11.0103 2.12848 12.315 1.97892 13.6239 1.98076C14.9436 1.98076 16.2546 2.13125 17.5078 2.42644C19.645 1.07637 21.2889 0.652389 22.4595 0.840499C22.5825 0.859309 22.6867 0.883909 22.7749 0.912849C22.9758 0.979089 23.1598 1.08857 23.3138 1.23358C23.4678 1.37858 23.5881 1.55559 23.6663 1.75213C24.371 3.51171 24.4188 5.07595 24.1033 6.36815C25.1032 7.72257 25.6343 9.3273 25.6343 11.1332C25.6343 16.5697 23.212 19.3306 18.9172 20.3826C19.098 20.9831 19.1921 21.6546 19.1921 22.3795C19.1922 23.6896 19.1865 24.9996 19.1747 26.3096C19.4997 26.3805 19.7903 26.5612 19.9977 26.8213C20.2051 27.0813 20.3165 27.4049 20.3133 27.7375C20.3101 28.0701 20.1924 28.3914 19.98 28.6474C19.7676 28.9034 19.4735 29.0784 19.1472 29.1429C17.4991 29.4728 16.2778 28.3731 16.2778 26.9362L16.2807 26.2908L16.2879 25.2707C16.2952 24.2462 16.298 23.3346 16.298 22.3795C16.298 21.3709 16.0332 20.7125 15.6831 20.4116C14.7266 19.5868 15.2113 18.0167 16.4645 17.8764C20.7578 17.3945 22.7402 15.7319 22.7402 11.1332C22.7402 9.7513 22.2887 8.6096 21.4191 7.65456C21.2359 7.45377 21.1129 7.20544 21.0643 6.938C21.0156 6.67057 21.0433 6.39484 21.1441 6.14241C21.3844 5.54334 21.4871 4.75761 21.2831 3.80691L21.2686 3.81125C20.5581 4.01239 19.6624 4.44794 18.58 5.18448C18.4055 5.30293 18.2072 5.38178 17.9989 5.41553C17.7907 5.44927 17.5776 5.43709 17.3746 5.37983C16.1532 5.04164 14.8913 4.87173 13.6239 4.87482C12.3361 4.87482 11.0598 5.04701 9.8732 5.38127C9.671 5.43808 9.4588 5.45016 9.2514 5.41668C9.044 5.38319 8.8463 5.30494 8.6722 5.18737C7.584 4.45373 6.68399 4.01962 5.96916 3.81704C5.76079 4.76195 5.86353 5.54479 6.10229 6.14241C6.2033 6.39471 6.23122 6.67036 6.18285 6.93779C6.13449 7.20522 6.01178 7.45362 5.8288 7.65456C4.96492 8.60091 4.50766 9.7643 4.50766 11.1332C4.50766 15.7232 6.49154 17.3959 10.7617 17.8764C12.0134 18.0167 12.4996 19.5795 11.5489 20.4058C11.2711 20.6489 10.9281 21.465 10.9281 22.3795V26.9377C10.9281 28.3644 9.7199 29.4338 8.092 29.1487C7.7617 29.0907 7.4618 28.9198 7.2436 28.6653C7.0253 28.4107 6.9023 28.0882 6.89546 27.753C6.88863 27.4177 6.99843 27.0905 7.2061 26.8273C7.4138 26.564 7.7064 26.381 8.0341 26.3096V24.8771C6.71727 24.9654 5.62911 24.7497 4.77247 24.1753Z" fill="white"/>
</svg>
