<?xml version="1.0" encoding="utf-8"?>
<svg version="1.1" x="0px" y="0px" viewBox="77.624 306.903 722.143 511.252" style="enable-background:new 0 0 800 800;" preserveAspectRatio="xMidYMid slice" xmlns="http://www.w3.org/2000/svg">
  <g id="Background">
    <rect style="fill:#FFFFFF;" width="800" height="800"/>
  </g>
  <g id="Objects" transform="matrix(0.749026, 0, 0, 0.749026, 128.626022, 285.425507)" style="">
    <g>
      <circle style="fill:none;stroke:#2FAFC1;stroke-width:4;stroke-linecap:round;stroke-miterlimit:10;stroke-dasharray:12.0159,12.0159;" cx="400" cy="371.501" r="340.393"/>
    </g>
    <defs>
      <filter id="Adobe_OpacityMaskFilter" filterUnits="userSpaceOnUse" x="245.216" y="473.645" width="309.568" height="246.139">
        <feColorMatrix type="matrix" values="-1 0 0 0 1  0 -1 0 0 1  0 0 -1 0 1  0 0 0 1 0" color-interpolation-filters="sRGB" result="source"/>
      </filter>
    </defs>
    <mask maskUnits="userSpaceOnUse" x="245.216" y="473.645" width="309.568" height="246.139" id="SVGID_1_">
      <g style="filter:url(#Adobe_OpacityMaskFilter);">
        <linearGradient id="SVGID_00000060003381892912302910000015227816991476692898_" gradientUnits="userSpaceOnUse" x1="400" y1="599.3646" x2="400" y2="719.3658">
          <stop offset="0" style="stop-color:#000000"/>
          <stop offset="1" style="stop-color:#FFFFFF"/>
        </linearGradient>
        <path style="fill:url(#SVGID_00000060003381892912302910000015227816991476692898_);" d="M495.498,473.645H304.502 c-32.743,0-59.286,26.543-59.286,59.286v70.746c0,32.743,26.543,59.286,59.286,59.286h71.98 c-1.021,1.302-1.635,2.938-1.635,4.721v4.592c0,4.233,3.432,7.664,7.665,7.664c-4.233,0-7.665,3.432-7.665,7.664v4.592 c0,4.233,3.432,7.665,7.665,7.665c-4.233,0-7.665,3.431-7.665,7.664v4.592c0,4.233,3.432,7.664,7.665,7.664h34.975 c4.233,0,7.665-3.432,7.665-7.664v-4.592c0-4.233-3.432-7.664-7.665-7.664c4.233,0,7.665-3.432,7.665-7.665v-4.592 c0-4.233-3.432-7.664-7.665-7.664c4.233,0,7.665-3.432,7.665-7.664v-4.592c0-1.783-0.614-3.419-1.635-4.721h71.98 c32.743,0,59.286-26.543,59.286-59.286v-70.746C554.784,500.188,528.241,473.645,495.498,473.645z"/>
      </g>
    </mask>
    <g style="mask:url(#SVGID_1_);">
      <path style="fill:#3C4043;" d="M506.998,662.964H293.002c-26.392,0-47.786-21.395-47.786-47.786v-93.746 c0-26.392,21.395-47.786,47.786-47.786h213.995c26.392,0,47.786,21.395,47.786,47.786v93.746 C554.784,641.57,533.389,662.964,506.998,662.964z"/>
      <path style="fill:#6D6E72;" d="M459.743,620.178H340.257c-12.783,0-23.145-10.362-23.145-23.145v-11.14 c0-12.783,10.362-23.145,23.145-23.145h119.486c12.783,0,23.145,10.362,23.145,23.145v11.14 C482.888,609.816,472.525,620.178,459.743,620.178z"/>
      <path style="fill:#53555B;" d="M418.974,640.099h-37.949c-3.412,0-6.178-2.766-6.178-6.178v-7.565 c0-3.412,2.766-6.178,6.178-6.178h37.949c3.412,0,6.178,2.766,6.178,6.178v7.565C425.152,637.334,422.386,640.099,418.974,640.099 z"/>
      <path style="fill:#6D6E72;" d="M418.974,660.021h-37.949c-3.412,0-6.178-2.766-6.178-6.178v-7.565 c0-3.412,2.766-6.178,6.178-6.178h37.949c3.412,0,6.178,2.766,6.178,6.178v7.565C425.152,657.255,422.386,660.021,418.974,660.021 z"/>
      <path style="fill:#53555B;" d="M418.974,679.942h-37.949c-3.412,0-6.178-2.766-6.178-6.178v-7.565 c0-3.412,2.766-6.178,6.178-6.178h37.949c3.412,0,6.178,2.766,6.178,6.178v7.565C425.152,677.176,422.386,679.942,418.974,679.942 z"/>
      <path style="fill:#6D6E72;" d="M418.974,699.863h-37.949c-3.412,0-6.178-2.766-6.178-6.178v-7.565 c0-3.412,2.766-6.178,6.178-6.178h37.949c3.412,0,6.178,2.766,6.178,6.178v7.565C425.152,697.097,422.386,699.863,418.974,699.863 z"/>
      <path style="fill:#53555B;" d="M418.974,719.784h-37.949c-3.412,0-6.178-2.766-6.178-6.178v-7.565 c0-3.412,2.766-6.178,6.178-6.178h37.949c3.412,0,6.178,2.766,6.178,6.178v7.565C425.152,717.018,422.386,719.784,418.974,719.784 z"/>
      <g>
        <g>
          <circle style="fill:#53555B;" cx="341.157" cy="607.681" r="4.652"/>
          <circle style="fill:#53555B;" cx="341.157" cy="575.246" r="4.652"/>
        </g>
        <g>
          <circle style="fill:#53555B;" cx="458.843" cy="607.681" r="4.652"/>
          <circle style="fill:#53555B;" cx="458.843" cy="575.246" r="4.652"/>
        </g>
      </g>
    </g>
    <circle style="fill: rgb(55, 195, 190);" cx="402" cy="371.501" r="317.894"/>
    <g>
      <path style="fill:#E6E9F1;" d="M552.745,248.527v193.878c0,8.468-6.867,15.335-15.335,15.335H262.59 c-8.468,0-15.335-6.867-15.335-15.335V248.527c0-8.468,6.867-15.335,15.335-15.335h274.82 C545.878,233.191,552.745,240.058,552.745,248.527z"/>
      <path style="fill:#3C4043;" d="M552.745,248.527v166.505H247.255V248.527c0-8.468,6.867-15.335,15.335-15.335h274.82 C545.878,233.191,552.745,240.058,552.745,248.527z"/>
      <rect x="261.905" y="245.956" style="fill:#6D6E72;" width="276.189" height="157.242"/>
      <g>
        <linearGradient id="SVGID_00000049922364571065911110000010381362532596757125_" gradientUnits="userSpaceOnUse" x1="370.6984" y1="250" x2="370.6984" y2="389.4883">
          <stop offset="0" style="stop-color:#FFFFFF;stop-opacity:0.7"/>
          <stop offset="1" style="stop-color:#FFFFFF;stop-opacity:0"/>
        </linearGradient>
        <polygon style="fill:url(#SVGID_00000049922364571065911110000010381362532596757125_);" points="359.529,403.198 &#10;&#9;&#9;&#9;&#9;318.333,403.198 381.868,245.956 423.064,245.956 &#9;&#9;&#9;"/>
        <linearGradient id="SVGID_00000158007406862447829380000008883844220440756107_" gradientUnits="userSpaceOnUse" x1="440.9062" y1="250" x2="440.9062" y2="389.4883">
          <stop offset="0" style="stop-color:#FFFFFF;stop-opacity:0.7"/>
          <stop offset="1" style="stop-color:#FFFFFF;stop-opacity:0"/>
        </linearGradient>
        <polygon style="fill:url(#SVGID_00000158007406862447829380000008883844220440756107_);" points="418.132,403.198 &#10;&#9;&#9;&#9;&#9;400.145,403.198 463.68,245.956 481.667,245.956 &#9;&#9;&#9;"/>
      </g>
      <circle style="fill:#3C4043;" cx="400" cy="435.691" r="8.123"/>
      <polygon style="fill:#D4D7DD;" points="433.102,487.332 366.898,487.332 370.384,457.74 429.616,457.74 &#9;&#9;"/>
      <path style="fill:#E6E9F1;" d="M455.675,497.128H344.325v-5.883c0-2.161,1.752-3.913,3.913-3.913h103.523 c2.161,0,3.913,1.752,3.913,3.913V497.128z"/>
      <circle style="fill:#7B7C80;" cx="400" cy="239.642" r="1.226"/>
    </g>
    <rect x="69.053" y="497.128" style="fill: rgb(20, 28, 58);" width="661.894" height="23.872"/>
    <g>
      <path style="fill: rgb(250, 35, 86);" d="M193.252,404.462h-33.932c-2.842,0-5.146-2.304-5.146-5.146v-25.224 c0-2.842,2.304-5.146,5.146-5.146h33.932c2.842,0,5.146,2.304,5.146,5.146v25.224 C198.399,402.158,196.095,404.462,193.252,404.462z"/>
      <path style="fill: rgb(182, 23, 60);" d="M169.226,362h14.122c1.659,0,3.004,1.345,3.004,3.004v3.942h-20.13v-3.942 C166.222,363.345,167.567,362,169.226,362z"/>
      <rect x="167.966" y="404.462" style="fill: rgb(182, 23, 60);" width="16.64" height="4.64"/>
      <rect x="154.174" y="409.102" style="fill: rgb(250, 35, 86);" width="44.224" height="36.593"/>
      <rect x="154.174" y="445.695" style="fill: rgb(182, 23, 60);" width="44.224" height="7.948"/>
      <rect x="171.314" y="449.669" style="fill: rgb(182, 23, 60);" width="9.946" height="13.004"/>
      <rect x="154.174" y="453.643" style="fill: rgb(250, 35, 86);" width="17.139" height="43.485"/>
      <rect x="181.259" y="453.643" style="fill: rgb(250, 35, 86);" width="17.139" height="43.485"/>
      <g>
        <rect x="140.32" y="386.138" style="fill:#F76300;" width="10.686" height="1.915"/>
        <rect x="147.839" y="379.272" style="fill: rgb(182, 23, 60);" width="6.336" height="15.646"/>
        <circle style="fill: rgb(182, 23, 60);" cx="139.203" cy="387.095" r="2.946"/>
      </g>
      <g>
        <rect x="201.566" y="386.138" transform="matrix(-1 -4.485224e-11 4.485224e-11 -1 413.8193 774.1906)" style="fill:#F76300;" width="10.686" height="1.915"/>
        <rect x="198.399" y="379.272" transform="matrix(-1 -4.464308e-11 4.464308e-11 -1 403.133 774.1906)" style="fill: rgb(182, 23, 60);" width="6.336" height="15.646"/>
        <circle style="fill: rgb(182, 23, 60);" cx="213.37" cy="387.095" r="2.946"/>
      </g>
      <g>
        <polygon style="fill: rgb(182, 23, 60);" points="154.174,409.102 146.414,416.862 137.685,446.223 145.149,448.977 154.174,419.709 &#9;&#9;&#9;"/>
        <polygon style="fill: rgb(250, 35, 86);" points="148.375,448.298 143.79,460.552 140.521,459.329 143.304,451.891 137.581,449.75 &#10;&#9;&#9;&#9;&#9;134.798,457.188 131.529,455.965 136.114,443.71 &#9;&#9;&#9;"/>
      </g>
      <g>
        <polygon style="fill: rgb(182, 23, 60);" points="198.399,409.102 206.159,416.862 214.888,446.223 207.424,448.977 198.399,419.709 &#9;&#9;&#9;"/>
        <polygon style="fill: rgb(250, 35, 86);" points="204.198,448.298 208.783,460.552 212.052,459.329 209.269,451.891 214.992,449.75 &#10;&#9;&#9;&#9;&#9;217.775,457.188 221.044,455.965 216.459,443.71 &#9;&#9;&#9;"/>
      </g>
      <rect x="161.184" y="415.899" style="fill:#E6E9F1;" width="30.205" height="19.355"/>
      <path style="fill:#E6E9F1;" d="M185.373,398.068H167.2c-1.968,0-3.562-1.595-3.562-3.563v-1.562c0-1.968,1.595-3.563,3.562-3.563 h18.173c1.968,0,3.563,1.595,3.563,3.563v1.562C188.936,396.473,187.341,398.068,185.373,398.068z"/>
      <g>
        <g>
          <circle style="fill:#3C4043;" cx="166.975" cy="381.304" r="5.791"/>
          <circle style="fill:#E6E9F1;" cx="166.975" cy="381.304" r="3.889"/>
        </g>
        <g>
          <circle style="fill:#3C4043;" cx="185.598" cy="381.304" r="5.791"/>
          <circle style="fill:#E6E9F1;" cx="185.598" cy="381.304" r="3.889"/>
        </g>
      </g>
      <g>
        <circle style="fill:#F76300;" cx="167.475" cy="421.632" r="3.203"/>
        <circle style="fill:#3C4043;" cx="167.475" cy="429.52" r="3.203"/>
        <rect x="174.483" y="418.429" style="fill:#3C4043;" width="13.818" height="14.295"/>
      </g>
    </g>
    <g>
      <g>
        <path style="fill:#CCCFD6;" d="M478.878,497.128H232.763v-3.275c0-5.939,4.815-10.754,10.754-10.754h224.607 c5.939,0,10.754,4.815,10.754,10.754V497.128z"/>
        <rect x="232.763" y="490.113" style="fill:#D4D7DD;" width="246.115" height="7.014"/>
      </g>
      <path style="fill:#E6E9F1;" d="M557.63,480h-22.952c-5.306,0-9.607,4.301-9.607,9.607v0c0,4.153,3.367,7.52,7.52,7.52h27.126 c4.153,0,7.52-3.367,7.52-7.52v0C567.237,484.301,562.936,480,557.63,480z"/>
    </g>
    <g>
      <rect x="605.667" y="475.667" style="fill: rgb(250, 35, 86);" width="112.227" height="21.461"/>
      <g>
        <rect x="703.53" y="475.667" style="fill: rgb(182, 23, 60);" width="7.333" height="21.461"/>
        <rect x="612.697" y="475.667" style="fill: rgb(182, 23, 60);" width="7.333" height="21.461"/>
      </g>
      <ellipse style="fill:#FFFFFF;" cx="661.78" cy="486.397" rx="29.582" ry="5.34"/>
    </g>
    <g>
      <g>
        <rect x="614.5" y="459.596" style="fill: rgb(20, 28, 58);" width="103.394" height="16.071"/>
        <g>
          <rect x="704.661" y="459.596" style="fill: rgb(255, 255, 255);" width="6.756" height="16.071"/>
          <rect x="620.977" y="459.596" style="fill: rgb(255, 255, 255);" width="6.756" height="16.071"/>
        </g>
      </g>
      <g>
        <rect x="636.307" y="463.465" style="fill: rgb(255, 255, 255);" width="26.113" height="8.333"/>
        <rect x="669.973" y="463.465" style="fill: rgb(255, 255, 255);" width="26.113" height="8.333"/>
      </g>
    </g>
    <g>
      <circle style="fill:#F9E382;" cx="403.805" cy="151.514" r="17.47"/>
      <linearGradient id="SVGID_00000168799806711414842300000009639723530949057458_" gradientUnits="userSpaceOnUse" x1="372.032" y1="284.2952" x2="372.032" y2="468.9344" gradientTransform="matrix(0.9999 0.0119 -0.0119 0.9999 37.0817 -120.9746)">
        <stop offset="0" style="stop-color:#FFFFFF;stop-opacity:0.7"/>
        <stop offset="1" style="stop-color:#FFFFFF;stop-opacity:0"/>
      </linearGradient>
      <polygon style="fill:url(#SVGID_00000168799806711414842300000009639723530949057458_);" points="568.126,379.272 &#10;&#9;&#9;&#9;238.259,379.272 368.482,150.727 437.903,150.727 &#9;&#9;"/>
      <path style="fill:#21475E;" d="M390.545,70.092h26.519c5.602,0,10.143,4.541,10.143,10.143v36.199l-46.805,0V80.235 C380.402,74.633,384.943,70.092,390.545,70.092z"/>
      <path style="fill:#2D5673;" d="M447.598,150.727h-87.586v-20.403c0-17.397,14.103-31.5,31.5-31.5h24.586 c17.397,0,31.5,14.103,31.5,31.5V150.727z"/>
    </g>
    <defs>
      <filter id="Adobe_OpacityMaskFilter_00000073678930908659282700000003125655227739497370_" filterUnits="userSpaceOnUse" x="245.216" y="473.645" width="309.568" height="246.139">
        <feColorMatrix type="matrix" values="-1 0 0 0 1  0 -1 0 0 1  0 0 -1 0 1  0 0 0 1 0" color-interpolation-filters="sRGB" result="source"/>
      </filter>
    </defs>
    <mask maskUnits="userSpaceOnUse" x="245.216" y="473.645" width="309.568" height="246.139" id="SVGID_00000165945973242406410930000008599525627174907013_">
      <g style="filter:url(#Adobe_OpacityMaskFilter_00000073678930908659282700000003125655227739497370_);">
        <linearGradient id="SVGID_00000142882035481955152840000006724471992161160631_" gradientUnits="userSpaceOnUse" x1="400" y1="599.3646" x2="400" y2="719.3658">
          <stop offset="0" style="stop-color:#000000"/>
          <stop offset="1" style="stop-color:#FFFFFF"/>
        </linearGradient>
        <path style="fill:url(#SVGID_00000142882035481955152840000006724471992161160631_);" d="M495.498,473.645H304.502 c-32.743,0-59.286,26.543-59.286,59.286v70.746c0,32.743,26.543,59.286,59.286,59.286h71.98 c-1.021,1.302-1.635,2.938-1.635,4.721v4.592c0,4.233,3.432,7.664,7.665,7.664c-4.233,0-7.665,3.432-7.665,7.664v4.592 c0,4.233,3.432,7.665,7.665,7.665c-4.233,0-7.665,3.431-7.665,7.664v4.592c0,4.233,3.432,7.664,7.665,7.664h34.975 c4.233,0,7.665-3.432,7.665-7.664v-4.592c0-4.233-3.432-7.664-7.665-7.664c4.233,0,7.665-3.432,7.665-7.665v-4.592 c0-4.233-3.432-7.664-7.665-7.664c4.233,0,7.665-3.432,7.665-7.664v-4.592c0-1.783-0.614-3.419-1.635-4.721h71.98 c32.743,0,59.286-26.543,59.286-59.286v-70.746C554.784,500.188,528.241,473.645,495.498,473.645z"/>
      </g>
    </mask>
    <g style="mask:url(#SVGID_00000165945973242406410930000008599525627174907013_);">
      <path style="fill:#3C4043;" d="M506.998,662.964H293.002c-26.392,0-47.786-21.395-47.786-47.786v-93.746 c0-26.392,21.395-47.786,47.786-47.786h213.995c26.392,0,47.786,21.395,47.786,47.786v93.746 C554.784,641.57,533.389,662.964,506.998,662.964z"/>
      <path style="fill:#6D6E72;" d="M459.743,620.178H340.257c-12.783,0-23.145-10.362-23.145-23.145v-11.14 c0-12.783,10.362-23.145,23.145-23.145h119.486c12.783,0,23.145,10.362,23.145,23.145v11.14 C482.888,609.816,472.525,620.178,459.743,620.178z"/>
      <path style="fill:#53555B;" d="M418.974,640.099h-37.949c-3.412,0-6.178-2.766-6.178-6.178v-7.565 c0-3.412,2.766-6.178,6.178-6.178h37.949c3.412,0,6.178,2.766,6.178,6.178v7.565C425.152,637.334,422.386,640.099,418.974,640.099 z"/>
      <path style="fill:#6D6E72;" d="M418.974,660.021h-37.949c-3.412,0-6.178-2.766-6.178-6.178v-7.565 c0-3.412,2.766-6.178,6.178-6.178h37.949c3.412,0,6.178,2.766,6.178,6.178v7.565C425.152,657.255,422.386,660.021,418.974,660.021 z"/>
      <path style="fill:#53555B;" d="M418.974,679.942h-37.949c-3.412,0-6.178-2.766-6.178-6.178v-7.565 c0-3.412,2.766-6.178,6.178-6.178h37.949c3.412,0,6.178,2.766,6.178,6.178v7.565C425.152,677.176,422.386,679.942,418.974,679.942 z"/>
      <path style="fill:#6D6E72;" d="M418.974,699.863h-37.949c-3.412,0-6.178-2.766-6.178-6.178v-7.565 c0-3.412,2.766-6.178,6.178-6.178h37.949c3.412,0,6.178,2.766,6.178,6.178v7.565C425.152,697.097,422.386,699.863,418.974,699.863 z"/>
      <path style="fill:#53555B;" d="M418.974,719.784h-37.949c-3.412,0-6.178-2.766-6.178-6.178v-7.565 c0-3.412,2.766-6.178,6.178-6.178h37.949c3.412,0,6.178,2.766,6.178,6.178v7.565C425.152,717.018,422.386,719.784,418.974,719.784 z"/>
      <g>
        <g>
          <circle style="fill:#53555B;" cx="341.157" cy="607.681" r="4.652"/>
          <circle style="fill:#53555B;" cx="341.157" cy="575.246" r="4.652"/>
        </g>
        <g>
          <circle style="fill:#53555B;" cx="458.843" cy="607.681" r="4.652"/>
          <circle style="fill:#53555B;" cx="458.843" cy="575.246" r="4.652"/>
        </g>
      </g>
    </g>
    <g>
      <rect x="69.053" y="184.388" style="fill: rgb(20, 28, 58);" width="143" height="148"/>
      <rect x="86.445" y="202.388" style="fill:#A5DDE8;" width="108.216" height="112"/>
      <path style="fill:#2B94A5;" d="M86.445,248.055c0,0,12.479-10.667,20.877-6.667s33.231,30.477,33.231,30.477 s32.5-22.477,41.5-18.477c9,4,12.608,10,12.608,10v51H86.445V248.055z"/>
      <circle style="fill:#2FAFC1;" cx="144.72" cy="233.055" r="13"/>
      <linearGradient id="SVGID_00000065073580607070949920000013458682976425281174_" gradientUnits="userSpaceOnUse" x1="164.0204" y1="215.2725" x2="124.0204" y2="304.2725">
        <stop offset="0" style="stop-color:#FFFFFF;stop-opacity:0.7"/>
        <stop offset="1" style="stop-color:#FFFFFF;stop-opacity:0"/>
      </linearGradient>
      <polygon style="fill:url(#SVGID_00000065073580607070949920000013458682976425281174_);" points="136.718,314.388 &#10;&#9;&#9;&#9;107.322,314.388 152.657,202.188 182.053,202.188 &#9;&#9;"/>
    </g>
    <g>
      <rect x="73.227" y="493.621" style="fill:#3C4043;" width="142.047" height="3.507"/>
      <g>
        <path style="fill:#E6E9F1;" d="M144.25,488.841c0,0,7.583-7.5,23.917-3.833c16.333,3.667,36.333,6.333,42.167-0.167l-1.167,3.167 l2.333-0.5v6.113h-67.25V488.841z"/>
        <path style="fill:#E6E9F1;" d="M144.25,488.841c0,0-7.583-7.5-23.917-3.833C104,488.674,84,491.341,78.167,484.841l1.167,3.167 l-2.333-0.5v6.113h67.25V488.841z"/>
      </g>
    </g>
    <g>
      <circle style="fill: rgb(20, 28, 58);" cx="664.194" cy="251.583" r="67.194"/>
      <path style="fill:#E6E9F1;" d="M717.78,251.58c0,29.13-23.24,52.83-52.19,53.57c-0.46,0.01-0.93,0.02-1.4,0.02 c-10.41,0-20.13-2.97-28.36-8.12c-15.15-9.46-25.22-26.29-25.22-45.47c0-29.59,23.99-53.58,53.58-53.58 c3.84,0,7.58,0.4,11.19,1.17c10.47,2.22,19.81,7.5,27.03,14.86C711.92,223.7,717.78,236.95,717.78,251.58z"/>
      <rect x="662.155" y="226.226" style="fill:#21475E;" width="4.077" height="22.991"/>
      <rect x="677.941" y="247.41" transform="matrix(-0.7071 0.7071 -0.7071 -0.7071 1349.8549 -24.3928)" style="fill: rgb(250, 35, 86);" width="4.077" height="39.916"/>
      <linearGradient id="SVGID_00000131335857548305591100000014050302470164108427_" gradientUnits="userSpaceOnUse" x1="685.2286" y1="219.3555" x2="652.9831" y2="291.1017">
        <stop offset="0" style="stop-color:#FFFFFF;stop-opacity:0.7"/>
        <stop offset="1" style="stop-color:#FFFFFF;stop-opacity:0"/>
      </linearGradient>
      <path style="fill:url(#SVGID_00000131335857548305591100000014050302470164108427_);" d="M702.41,214.03l-36.82,91.12 c-0.46,0.01-0.93,0.02-1.4,0.02c-10.41,0-20.13-2.97-28.36-8.12l39.55-97.88C685.85,201.39,695.19,206.67,702.41,214.03z"/>
    </g>
    <g>
      <g>
        <rect x="670.508" y="401.313" transform="matrix(0.9811 0.1935 -0.1935 0.9811 95.5255 -122.1684)" style="fill: rgb(20, 28, 58);" width="5.447" height="53.333"/>
        <rect x="665.638" y="451.175" transform="matrix(0.9811 0.1935 -0.1935 0.9811 100.211 -120.7597)" style="fill:#2D5673;" width="5.447" height="2.996"/>
        <polygon style="fill:#FFFFFF;" points="679.021,394.712 680.505,395.005 681.063,402.344 675.719,401.29 &#9;&#9;&#9;"/>
        <rect x="679.115" y="393.744" transform="matrix(0.9811 0.1935 -0.1935 0.9811 89.1361 -124.0904)" style="fill:#2D5673;" width="1.523" height="1.126"/>
      </g>
      <g>
        <rect x="656.568" y="403.395" transform="matrix(0.9966 -0.0822 0.0822 0.9966 -33.1205 55.6502)" style="fill: rgb(20, 28, 58);" width="5.447" height="53.333"/>
        <rect x="658.637" y="453.647" transform="matrix(0.9966 -0.0822 0.0822 0.9966 -35.1754 55.9052)" style="fill:#2D5673;" width="5.447" height="2.996"/>
        <polygon style="fill:#FFFFFF;" points="655.762,396.479 657.27,396.355 659.813,403.262 654.385,403.709 &#9;&#9;&#9;"/>
        <rect x="655.713" y="395.292" transform="matrix(0.9966 -0.0822 0.0822 0.9966 -30.3182 55.3029)" style="fill:#2D5673;" width="1.523" height="1.126"/>
      </g>
      <g>
        <polygon style="opacity:0.48;fill:#A5DDE8;" points="681.71,415.03 681.26,419.16 676.8,459.6 655.6,459.6 654.68,451.28 &#10;&#9;&#9;&#9;&#9;650.68,415.03 &#9;&#9;&#9;"/>
        <linearGradient id="SVGID_00000014595570827993017320000012766195794212911281_" gradientUnits="userSpaceOnUse" x1="674.8487" y1="420.1298" x2="659.4002" y2="454.5026">
          <stop offset="0" style="stop-color:#FFFFFF;stop-opacity:0.7"/>
          <stop offset="1" style="stop-color:#FFFFFF;stop-opacity:0"/>
        </linearGradient>
        <polygon style="fill:url(#SVGID_00000014595570827993017320000012766195794212911281_);" points="681.71,415.03 681.26,419.16 &#10;&#9;&#9;&#9;&#9;664.92,459.6 655.6,459.6 654.68,451.28 669.33,415.03 &#9;&#9;&#9;"/>
      </g>
    </g>
  </g>
</svg>